<?xml version="1.0" encoding="UTF-8"?>
<svg width="24" height="24" viewBox="0 0 24 24" fill="none" xmlns="http://www.w3.org/2000/svg">
  <circle cx="12" cy="12" r="2" stroke="#3A86FF" stroke-width="2"/>
  <path d="M12 6C12 6 12 5 12 4C12 3 13 2 14 2H15C16 2 17 3 17 4C17 5 16 6 15.5 6.5C15 7 14 7 12 7C10 7 9 7 8.5 6.5C8 6 7 5 7 4C7 3 8 2 9 2H10C11 2 12 3 12 4C12 5 12 6 12 6Z" stroke="#3A86FF" stroke-width="2"/>
  <path d="M12 18C12 18 12 19 12 20C12 21 13 22 14 22H15C16 22 17 21 17 20C17 19 16 18 15.5 17.5C15 17 14 17 12 17C10 17 9 17 8.5 17.5C8 18 7 19 7 20C7 21 8 22 9 22H10C11 22 12 21 12 20C12 19 12 18 12 18Z" stroke="#3A86FF" stroke-width="2"/>
  <path d="M6 12C6 12 5 12 4 12C3 12 2 11 2 10V9C2 8 3 7 4 7C5 7 6 8 6.5 8.5C7 9 7 10 7 12C7 14 7 15 6.5 15.5C6 16 5 17 4 17C3 17 2 16 2 15V14C2 13 3 12 4 12C5 12 6 12 6 12Z" stroke="#3A86FF" stroke-width="2"/>
  <path d="M18 12C18 12 19 12 20 12C21 12 22 11 22 10V9C22 8 21 7 20 7C19 7 18 8 17.5 8.5C17 9 17 10 17 12C17 14 17 15 17.5 15.5C18 16 19 17 20 17C21 17 22 16 22 15V14C22 13 21 12 20 12C19 12 18 12 18 12Z" stroke="#3A86FF" stroke-width="2"/>
</svg>